<?xml version="1.0" encoding="utf-8"?>
<!-- Generator: Adobe Illustrator 19.0.0, SVG Export Plug-In . SVG Version: 6.00 Build 0)  -->
<svg version="1.1" id="Warstwa_1" xmlns="http://www.w3.org/2000/svg" xmlns:xlink="http://www.w3.org/1999/xlink" x="0px" y="0px"
	 viewBox="0 0 50 50" style="enable-background:new 0 0 50 50;" xml:space="preserve">
<style type="text/css">
	.st0{fill:#FFFFFF;}
</style>
<g>
	<path class="st0" d="M25.7,30.3l-1-3.9c0.6-0.5,1.1-1,1.6-1.6l3.9,1c0.5,0.1,1-0.1,1.2-0.6l1.6-3.7c0.2-0.5,0-1-0.4-1.3l-3.4-2
		c0-0.4,0.1-0.8,0.1-1.2c0-0.3,0-0.7,0-1l3.5-2.1c0.4-0.3,0.6-0.8,0.4-1.2l-1.5-3.7c-0.2-0.5-0.7-0.7-1.2-0.6l-3.9,1
		c-0.5-0.6-1-1.2-1.6-1.7l1-3.9c0.1-0.5-0.1-1-0.6-1.2l-3.7-1.5c-0.5-0.2-1,0-1.2,0.4l-2,3.5C17.5,5,16.7,5,16,5.1l-2-3.5
		c-0.3-0.4-0.8-0.6-1.2-0.4L9,2.7C8.5,2.9,8.3,3.4,8.4,3.9l1,3.9c-0.6,0.5-1.2,1-1.7,1.6l-3.9-1c-0.5-0.1-1,0.1-1.2,0.6l-1.5,3.7
		c-0.2,0.5,0,1,0.4,1.3l3.4,2c0,0.4-0.1,0.8-0.1,1.3c0,0.4,0,0.7,0.1,1.1l-3.5,2c-0.4,0.3-0.6,0.8-0.4,1.2l1.5,3.7
		c0.2,0.5,0.7,0.7,1.2,0.6l3.8-1c0.5,0.6,1,1.1,1.6,1.6l-1,3.9c-0.1,0.5,0.1,1,0.6,1.2l3.7,1.5c0.5,0.2,1,0,1.2-0.4l2.1-3.5
		c0.7,0.1,1.5,0.1,2.2,0l2.1,3.5c0.2,0.3,0.5,0.5,0.9,0.5c0.1,0,0.3,0,0.4-0.1l3.7-1.5C25.6,31.3,25.8,30.8,25.7,30.3z M19.9,19.9
		c-1.5,1.5-4.2,1.5-5.7,0c-0.8-0.8-1.2-1.8-1.2-2.8c0-1.1,0.4-2.1,1.2-2.8c0.8-0.8,1.8-1.2,2.8-1.2c1.1,0,2.1,0.4,2.8,1.2
		C20.6,15,21,16,21,17.1C21,18.2,20.6,19.2,19.9,19.9z"/>
	<path class="st0" d="M49,35.6c0-0.5-0.4-0.9-0.9-1l-2.7-0.4c-0.1-0.2-0.2-0.4-0.3-0.7c-0.1-0.2-0.2-0.4-0.3-0.5l1.6-2.2
		c0.3-0.4,0.3-1-0.1-1.3l-2-2c-0.4-0.3-0.9-0.4-1.3-0.1L41,29.1c-0.4-0.2-0.8-0.4-1.2-0.5L39.4,26c-0.1-0.5-0.5-0.8-1-0.9l-2.9,0
		c-0.5,0-0.9,0.4-1,0.9l-0.3,2.7c-0.2,0.1-0.4,0.2-0.7,0.3c-0.2,0.1-0.4,0.2-0.5,0.3l-2.2-1.6c-0.4-0.3-1-0.3-1.3,0.1l-2,2
		c-0.4,0.4-0.4,0.9-0.1,1.3l1.6,2.1c-0.2,0.4-0.4,0.8-0.5,1.3l-2.6,0.4c-0.5,0.1-0.9,0.5-0.9,1l0,2.9c0,0.5,0.4,0.9,0.9,1l2.6,0.3
		c0.1,0.2,0.2,0.5,0.3,0.7c0.1,0.2,0.2,0.4,0.3,0.5l-1.6,2.2c-0.3,0.4-0.3,1,0.1,1.3l2,2C30,47,30.6,47,31,46.7l2.1-1.6
		c0.4,0.2,0.8,0.4,1.2,0.5l0.4,2.7c0.1,0.5,0.5,0.8,1,0.8c0,0,0,0,0,0l2.9,0c0.5,0,0.9-0.4,1-0.9l0.4-2.7c0.2-0.1,0.4-0.2,0.6-0.3
		c0.2-0.1,0.4-0.2,0.5-0.3l2.2,1.6c0.4,0.3,0.9,0.3,1.3-0.1l2-2c0.3-0.4,0.4-0.9,0.1-1.3L45,41.1c0.2-0.4,0.4-0.8,0.5-1.2l2.7-0.4
		c0.5-0.1,0.8-0.5,0.8-1L49,35.6z M38.9,37.9c-0.4,1-1.6,1.5-2.6,1.1c-1-0.4-1.5-1.6-1.1-2.6c0.3-0.8,1-1.3,1.9-1.3
		c0.3,0,0.5,0,0.7,0.1c0.5,0.2,0.9,0.6,1.1,1.1C39.1,36.8,39.1,37.4,38.9,37.9z"/>
</g>
</svg>
