<?xml version="1.0" encoding="utf-8"?>
<!-- Generator: Adobe Illustrator 19.0.0, SVG Export Plug-In . SVG Version: 6.00 Build 0)  -->
<svg version="1.1" id="Warstwa_1" xmlns="http://www.w3.org/2000/svg" xmlns:xlink="http://www.w3.org/1999/xlink" x="0px" y="0px"
	 viewBox="0 0 50 50" style="enable-background:new 0 0 50 50;" xml:space="preserve">
<style type="text/css">
	.st0{fill:none;stroke:#FFFFFF;stroke-width:2;stroke-linecap:round;stroke-linejoin:round;stroke-miterlimit:10;}
</style>
<g>
	<g>
		<g>
			<path class="st0" d="M28,18.8l4,2.4l-1.6,3.7l-4.5-1.2c-0.7,0.9-1.5,1.7-2.4,2.3l1.2,4.5L21,32.1l-2.4-4c-0.5,0.1-1,0.1-1.6,0.1
				c-0.6,0-1.1,0-1.7-0.1h0l-2.4,4l-3.7-1.6l1.1-4.6c-0.9-0.7-1.7-1.5-2.3-2.4l-4.5,1.2L2,21.1l4-2.4c-0.1-0.5-0.1-1-0.1-1.6
				c0-0.6,0-1.2,0.1-1.8v0l-4-2.3l1.6-3.7l4.5,1.2c0.7-0.9,1.5-1.7,2.4-2.4L9.3,3.6l3.7-1.5l2.4,4C16,6.1,16.5,6,17,6
				c0.6,0,1.2,0,1.7,0.1l2.4-4l3.7,1.6l-1.2,4.5c0.9,0.7,1.7,1.5,2.4,2.4l4.5-1.2l1.5,3.7l-4,2.4c0.1,0.5,0.1,1,0.1,1.6
				C28.1,17.7,28.1,18.3,28,18.8z"/>
		</g>
		<circle class="st0" cx="17" cy="17.1" r="5"/>
	</g>
	<g>
		<g>
			<path class="st0" d="M44.7,35.2l3.3,0.4l0,2.9L44.7,39c-0.2,0.8-0.5,1.5-0.9,2.2l2,2.6l-2,2l-2.7-2c-0.3,0.2-0.6,0.4-1,0.5
				c-0.4,0.2-0.8,0.3-1.1,0.4l0,0l-0.5,3.3l-2.9,0l-0.5-3.3c-0.8-0.2-1.5-0.5-2.2-0.9l-2.6,2l-2-2l2-2.7c-0.2-0.3-0.4-0.7-0.5-1
				c-0.2-0.4-0.3-0.8-0.4-1.2l0,0l-3.3-0.4l0-2.9l3.3-0.5c0.2-0.8,0.5-1.6,0.9-2.3l-2-2.6l2-2l2.7,2c0.3-0.2,0.7-0.4,1-0.5
				c0.4-0.2,0.8-0.3,1.2-0.4l0.4-3.3l2.9,0l0.5,3.3c0.8,0.2,1.5,0.5,2.2,0.9l2.6-2l2,2l-2,2.7c0.2,0.3,0.4,0.6,0.5,1
				C44.5,34.4,44.6,34.8,44.7,35.2z"/>
		</g>
		<path class="st0" d="M35.9,39.9c1.5,0.6,3.3-0.1,3.9-1.7c0.6-1.5-0.1-3.3-1.7-3.9c-1.5-0.6-3.3,0.1-3.9,1.7
			C33.6,37.5,34.4,39.3,35.9,39.9z"/>
	</g>
</g>
</svg>
