<?xml version="1.0" encoding="utf-8"?>
<!-- Generator: Adobe Illustrator 19.0.0, SVG Export Plug-In . SVG Version: 6.00 Build 0)  -->
<svg version="1.1" id="Warstwa_1" xmlns="http://www.w3.org/2000/svg" xmlns:xlink="http://www.w3.org/1999/xlink" x="0px" y="0px"
	 viewBox="0 0 50 50" style="enable-background:new 0 0 50 50;" xml:space="preserve">
<style type="text/css">
	.st0{fill:#FFFFFF;}
</style>
<g>
	<path class="st0" d="M48,47.1h-1v-33c0-0.6-0.4-1-1-1h-6c-0.6,0-1,0.4-1,1v33h-4v-23c0-0.6-0.4-1-1-1h-6c-0.6,0-1,0.4-1,1v23h-4
		v-13c0-0.6-0.4-1-1-1h-6c-0.6,0-1,0.4-1,1v13h-4v-5c0-0.6-0.4-1-1-1H4c-0.6,0-1,0.4-1,1v5H2c-0.6,0-1,0.4-1,1c0,0.6,0.4,1,1,1h2h6
		h6h6h6h6h6h6h2c0.6,0,1-0.4,1-1C49,47.6,48.6,47.1,48,47.1z"/>
	<path class="st0" d="M4,39.1c0.2,0,0.5-0.1,0.7-0.2L45,4.3v3.8c0,0.6,0.4,1,1,1c0.6,0,1-0.4,1-1v-6c0,0,0-0.1,0-0.1
		c0-0.1,0-0.1,0-0.2c0-0.1-0.1-0.1-0.1-0.2c0,0,0-0.1-0.1-0.1c0,0,0,0,0,0c-0.1-0.1-0.1-0.1-0.2-0.1c0,0-0.1-0.1-0.1-0.1
		c-0.1,0-0.1,0-0.2,0c-0.1,0-0.1,0-0.2,0c0,0,0,0,0,0h-6c-0.6,0-1,0.4-1,1c0,0.6,0.4,1,1,1h3.3L3.4,37.4c-0.4,0.4-0.5,1-0.1,1.4
		C3.5,39,3.8,39.1,4,39.1z"/>
</g>
</svg>
