<?xml version="1.0" encoding="utf-8"?>
<!-- Generator: Adobe Illustrator 19.0.0, SVG Export Plug-In . SVG Version: 6.00 Build 0)  -->
<svg version="1.1" id="Warstwa_1" xmlns="http://www.w3.org/2000/svg" xmlns:xlink="http://www.w3.org/1999/xlink" x="0px" y="0px"
	 viewBox="0 0 50 50" style="enable-background:new 0 0 50 50;" xml:space="preserve">
<style type="text/css">
	.st0{fill:#FFFFFF;}
</style>
<g id="XMLID_3_">
	<path id="XMLID_6_" class="st0" d="M21.6,26.5c0.9-0.9,2.1-1.4,3.5-1.4c1.3,0,2.6,0.5,3.6,1.5l7,6.4l9.4-12.1V2.1c0-0.5-0.4-1-1-1
		H6c-0.5,0-1,0.5-1,1v18.8L14.4,33L21.6,26.5z M13,6.1c0-0.5,0.4-1,1-1h6c0.5,0,1,0.5,1,1v6c0,0.5-0.5,1-1,1h-6c-0.6,0-1-0.5-1-1
		V6.1z M14,15.1h22c0.5,0,1,0.5,1,1c0,0.5-0.5,1-1,1H14c-0.6,0-1-0.5-1-1C13,15.6,13.5,15.1,14,15.1z M13,20.1c0-0.5,0.4-1,1-1h22
		c0.5,0,1,0.5,1,1c0,0.5-0.5,1-1,1H14C13.5,21.1,13,20.7,13,20.1z"/>
	<rect id="XMLID_5_" x="15" y="7.1" class="st0" width="4" height="4"/>
	<path id="XMLID_4_" class="st0" d="M48,13.1h-1v8.5l-9.9,12.7l5.6,5c0.4,0.4,0.4,1,0.1,1.4c-0.4,0.4-1,0.4-1.4,0.1L27.2,28
		c-1.2-1.2-3.1-1.2-4.3,0L8.7,40.9C8.5,41,8.3,41.1,8,41.1c-0.3,0-0.5-0.1-0.7-0.3c-0.4-0.4-0.3-1,0.1-1.4l5.6-5L3,21.6v-8.5H2
		c-0.6,0-1,0.4-1,1V19v25.1c0,2.8,2.2,5,5,5h38c2.8,0,5-2.2,5-5V19v-4.9C49,13.6,48.6,13.1,48,13.1z"/>
</g>
</svg>
