<?xml version="1.0" encoding="utf-8"?>
<!-- Generator: Adobe Illustrator 19.0.0, SVG Export Plug-In . SVG Version: 6.00 Build 0)  -->
<svg version="1.1" id="Warstwa_1" xmlns="http://www.w3.org/2000/svg" xmlns:xlink="http://www.w3.org/1999/xlink" x="0px" y="0px"
	 viewBox="0 0 50 50" style="enable-background:new 0 0 50 50;" xml:space="preserve">
<style type="text/css">
	.st0{fill:#FFFFFF;}
</style>
<g id="XMLID_3_">
	<path id="XMLID_7_" class="st0" d="M48.7,5.3c-0.3-0.2-0.6-0.3-0.9-0.2L37,7.8c1.3,2.1,2,4.6,2,7.2c0,4.6-2.3,8.9-6,11.4v20.3
		L32.2,47L31,46.4V28.9l-3.3,6.6c-0.5,1-1.5,1.6-2.7,1.6c-1.1,0-2.2-0.6-2.7-1.6L19,28.9v10.6l-0.5-0.3c-0.2-0.1-0.3-0.1-0.5-0.1
		c-0.1,0-0.2,0-0.2,0L17,39.3V26.5c-3.7-2.6-6-6.9-6-11.5c0-4.7,2.4-8.9,6-11.5V3.4l0.6-0.1c0.7-0.5,1.5-0.9,2.4-1.2l-1.4-0.8
		c0,0,0,0-0.1,0c-0.1,0-0.1,0-0.2-0.1c-0.1,0-0.1,0-0.2,0c0,0-0.1,0-0.1,0c0,0-0.1,0-0.1,0c-0.1,0-0.1,0-0.1,0l-16,4
		C1.3,5.3,1,5.7,1,6.1v38c0,0.3,0.1,0.6,0.4,0.8c0.3,0.2,0.6,0.3,0.9,0.2l15.6-3.9L31.5,49c0,0,0.1,0,0.1,0c0,0,0.1,0,0.1,0
		c0.1,0,0.2,0.1,0.3,0.1c0.1,0,0.2,0,0.2,0l16-4c0.5-0.1,0.8-0.5,0.8-1v-38C49,5.8,48.9,5.5,48.7,5.3z"/>
	<path id="XMLID_4_" class="st0" d="M13,15.1c0,4.6,2.6,8.7,6.7,10.7l4.4,8.7c0.2,0.3,0.5,0.5,0.9,0.5c0.4,0,0.7-0.2,0.9-0.5
		l4.4-8.8c4.1-2,6.7-6.2,6.7-10.7c0-6.6-5.4-12-12-12C18.4,3.1,13,8.5,13,15.1z M25,11.1c2.2,0,4,1.8,4,4c0,2.2-1.8,4-4,4
		c-2.2,0-4-1.8-4-4C21,12.9,22.8,11.1,25,11.1z"/>
</g>
</svg>
