<?xml version="1.0" encoding="utf-8"?>
<!-- Generator: Adobe Illustrator 19.0.0, SVG Export Plug-In . SVG Version: 6.00 Build 0)  -->
<svg version="1.1" id="Warstwa_1" xmlns="http://www.w3.org/2000/svg" xmlns:xlink="http://www.w3.org/1999/xlink" x="0px" y="0px"
	 viewBox="0 0 50 50" style="enable-background:new 0 0 50 50;" xml:space="preserve">
<style type="text/css">
	.st0{fill:#FFFFFF;}
</style>
<path id="XMLID_3_" class="st0" d="M36,1.1H14c-1.7,0-3,1.4-3,3v42c0,1.6,1.3,3,3,3h22c1.7,0,3-1.4,3-3v-42C39,2.5,37.7,1.1,36,1.1z
	 M24,5.1h2c0.5,0,1,0.5,1,1s-0.5,1-1,1h-2c-0.6,0-1-0.5-1-1S23.5,5.1,24,5.1z M19.3,5.4c0.4-0.4,1.1-0.4,1.4,0
	C20.9,5.6,21,5.9,21,6.1c0,0.3-0.1,0.5-0.3,0.7C20.6,7,20.3,7.1,20,7.1c-0.3,0-0.5-0.1-0.7-0.3C19.1,6.6,19,6.4,19,6.1
	C19,5.8,19.1,5.6,19.3,5.4z M25,45.1c-1.7,0-3-1.4-3-3c0-1.6,1.3-3,3-3c1.7,0,3,1.4,3,3C28,43.8,26.7,45.1,25,45.1z M35,36.1
	c0,0.5-0.5,1-1,1H16c-0.6,0-1-0.5-1-1v-26c0-0.5,0.4-1,1-1h18c0.5,0,1,0.5,1,1V36.1z"/>
</svg>
