<?xml version="1.0" encoding="utf-8"?>
<!-- Generator: Adobe Illustrator 19.0.0, SVG Export Plug-In . SVG Version: 6.00 Build 0)  -->
<svg version="1.1" id="Warstwa_1" xmlns="http://www.w3.org/2000/svg" xmlns:xlink="http://www.w3.org/1999/xlink" x="0px" y="0px"
	 viewBox="0 0 50 50" style="enable-background:new 0 0 50 50;" xml:space="preserve">
<style type="text/css">
	.st0{fill:none;stroke:#FFFFFF;stroke-width:2;stroke-linecap:round;stroke-linejoin:round;stroke-miterlimit:10;}
</style>
<g>
	<g>
		<line class="st0" x1="24" y1="36.1" x2="32" y2="36.1"/>
		<path class="st0" d="M46,23.1v-19c0-1.1-0.9-2-2-2H6c-1.1,0-2,0.9-2,2v12"/>
		<line class="st0" x1="24" y1="30.1" x2="32" y2="30.1"/>
	</g>
	<g>
		<g>
			<path class="st0" d="M-145,229.3c0,1.1-0.9,2-2,2h-18c-1.1,0-2-0.9-2-2v-28c0-1.1,0.9-2,2-2h18c1.1,0,2,0.9,2,2V229.3z"/>
		</g>
		<line class="st0" x1="13" y1="44.1" x2="13" y2="44.1"/>
		<polyline class="st0" points="20,40.1 6,40.1 6,20.1 20,20.1 20,40.1 		"/>
	</g>
	<g>
		<g>
			<path class="st0" d="M-121,229.3c0,1.1-0.9,2-2,2h-12c-1.1,0-2-0.9-2-2v-20c0-1.1,0.9-2,2-2h12c1.1,0,2,0.9,2,2V229.3z"/>
		</g>
		<line class="st0" x1="40" y1="44.1" x2="40" y2="44.1"/>
		<polyline class="st0" points="44,40.1 36,40.1 36,28.1 44,28.1 44,40.1 		"/>
	</g>
</g>
</svg>
