<?xml version="1.0" encoding="utf-8"?>
<!-- Generator: Adobe Illustrator 19.0.0, SVG Export Plug-In . SVG Version: 6.00 Build 0)  -->
<svg version="1.1" id="Warstwa_1" xmlns="http://www.w3.org/2000/svg" xmlns:xlink="http://www.w3.org/1999/xlink" x="0px" y="0px"
	 viewBox="0 0 50 50" style="enable-background:new 0 0 50 50;" xml:space="preserve">
<style type="text/css">
	.st0{fill:#FFFFFF;}
</style>
<g id="XMLID_2_">
	<rect id="XMLID_12_" x="27.2" y="30.8" class="st0" width="2" height="6"/>
	<path id="XMLID_11_" class="st0" d="M46.2,20.8c0.3,0,0.7,0,1,0.1V3.8c0-1.6-1.3-3-3-3h-38c-1.7,0-3,1.4-3,3v9.1
		c0.3-0.1,0.7-0.1,1-0.1h18c2.8,0,5,2.2,5,5v11h2v-3c0-2.8,2.2-5,5-5H46.2z"/>
	<path id="XMLID_7_" class="st0" d="M22.2,14.8h-18c-1.7,0-3,1.4-3,3v11v2v15c0,1.6,1.3,3,3,3h18c1.7,0,3-1.4,3-3v-28
		C25.2,16.2,23.9,14.8,22.2,14.8z M14,44.5c-0.2,0.2-0.4,0.3-0.7,0.3c-0.3,0-0.5-0.1-0.7-0.3c-0.2-0.2-0.3-0.5-0.3-0.7
		c0-0.3,0.1-0.5,0.3-0.7c0.4-0.4,1-0.4,1.4,0c0.2,0.2,0.3,0.5,0.3,0.7C14.2,44.1,14.1,44.3,14,44.5z M21.2,39.8c0,0.5-0.5,1-1,1h-14
		c-0.6,0-1-0.5-1-1v-20c0-0.5,0.4-1,1-1h14c0.5,0,1,0.5,1,1V39.8z"/>
	<path id="XMLID_3_" class="st0" d="M46.2,22.8h-12c-1.7,0-3,1.4-3,3v20c0,1.6,1.3,3,3,3h12c1.7,0,3-1.4,3-3v-20
		C49.2,24.2,47.9,22.8,46.2,22.8z M41,44.5c-0.2,0.2-0.4,0.3-0.7,0.3c-0.3,0-0.5-0.1-0.7-0.3c-0.2-0.2-0.3-0.5-0.3-0.7
		c0-0.3,0.1-0.5,0.3-0.7c0.4-0.4,1.1-0.4,1.4,0c0.2,0.2,0.3,0.5,0.3,0.7C41.2,44.1,41.1,44.3,41,44.5z M45.2,39.8c0,0.5-0.5,1-1,1
		h-8c-0.6,0-1-0.5-1-1v-12c0-0.5,0.4-1,1-1h8c0.5,0,1,0.5,1,1V39.8z"/>
</g>
</svg>
