<?xml version="1.0" encoding="utf-8"?>
<!-- Generator: Adobe Illustrator 19.0.0, SVG Export Plug-In . SVG Version: 6.00 Build 0)  -->
<svg version="1.1" id="Warstwa_1" xmlns="http://www.w3.org/2000/svg" xmlns:xlink="http://www.w3.org/1999/xlink" x="0px" y="0px"
	 viewBox="0 0 50 50" style="enable-background:new 0 0 50 50;" xml:space="preserve">
<style type="text/css">
	.st0{fill:#FFFFFF;}
</style>
<g>
	<path class="st0" d="M48,5.1H2c-0.6,0-1,0.5-1,1v7h48v-7C49,5.6,48.6,5.1,48,5.1z M6.7,10.8C6.6,11,6.3,11.1,6,11.1
		c-0.3,0-0.5-0.1-0.7-0.3C5.1,10.6,5,10.4,5,10.1c0-0.3,0.1-0.5,0.3-0.7c0.4-0.4,1-0.4,1.4,0C6.9,9.6,7,9.9,7,10.1
		C7,10.4,6.9,10.6,6.7,10.8z M10.7,10.8c-0.2,0.2-0.4,0.3-0.7,0.3c-0.3,0-0.5-0.1-0.7-0.3C9.1,10.6,9,10.4,9,10.1
		c0-0.3,0.1-0.5,0.3-0.7c0.4-0.4,1.1-0.4,1.4,0c0.2,0.2,0.3,0.4,0.3,0.7C11,10.4,10.9,10.6,10.7,10.8z M14.7,10.8
		c-0.2,0.2-0.4,0.3-0.7,0.3c-0.3,0-0.5-0.1-0.7-0.3c-0.2-0.2-0.3-0.4-0.3-0.7c0-0.3,0.1-0.5,0.3-0.7c0.4-0.4,1-0.4,1.4,0
		c0.2,0.2,0.3,0.4,0.3,0.7C15,10.4,14.9,10.6,14.7,10.8z"/>
	<path class="st0" d="M1,44.1c0,0.6,0.4,1,1,1h46c0.5,0,1-0.4,1-1v-29H1V44.1z M33.3,22.8c-0.4-0.4-0.3-1,0.1-1.4
		c0.4-0.4,1-0.3,1.4,0.1l6,7c0.3,0.4,0.3,0.9,0,1.3l-6,7c-0.2,0.2-0.5,0.3-0.8,0.3c-0.2,0-0.5-0.1-0.7-0.2c-0.4-0.4-0.5-1-0.1-1.4
		l5.4-6.4L33.3,22.8z M19.1,39.7l10-22c0.2-0.5,0.8-0.7,1.3-0.5c0.5,0.2,0.7,0.8,0.5,1.3l-10,22c-0.2,0.4-0.5,0.6-0.9,0.6
		c-0.1,0-0.3,0-0.4-0.1C19.1,40.8,18.9,40.2,19.1,39.7z M9.3,28.5l6-7c0.4-0.4,1-0.5,1.4-0.1c0.4,0.4,0.5,1,0.1,1.4l-5.4,6.3
		l5.4,6.4c0.4,0.4,0.3,1-0.1,1.4c-0.2,0.2-0.4,0.2-0.7,0.2c-0.3,0-0.6-0.1-0.8-0.3l-6-7C9,29.4,9,28.8,9.3,28.5z"/>
</g>
</svg>
