<?xml version="1.0" encoding="utf-8"?>
<!-- Generator: Adobe Illustrator 19.0.0, SVG Export Plug-In . SVG Version: 6.00 Build 0)  -->
<svg version="1.1" id="Warstwa_1" xmlns="http://www.w3.org/2000/svg" xmlns:xlink="http://www.w3.org/1999/xlink" x="0px" y="0px"
	 viewBox="0 0 50 50" style="enable-background:new 0 0 50 50;" xml:space="preserve">
<style type="text/css">
	.st0{fill:#FFFFFF;}
</style>
<g>
	<path class="st0" d="M17,38.1v6c0,0.5,0.5,1,1,1h1v1c0,1.6,1.3,3,3,3h6c1.7,0,3-1.4,3-3v-1h1c0.6,0,1-0.5,1-1v-6c0-0.3,0-0.7,0.1-1
		H17C17,37.5,17,37.8,17,38.1z"/>
	<path class="st0" d="M25,1.1c-8.8,0-16,7.2-16,16c0,4.8,2.5,9.1,4.7,12.8c1.1,1.8,2.1,3.6,2.7,5.2h17.3c0.6-1.6,1.7-3.4,2.7-5.2
		c2.2-3.7,4.7-8,4.7-12.8C41,8.3,33.9,1.1,25,1.1z M24.2,9.2c-4.1,0.4-7.1,3.8-7.1,8c0,2,1.8,5,3.2,7.5c0.2,0.4,0.4,0.7,0.6,1.1
		c0.3,0.5,0.1,1.1-0.4,1.4c-0.2,0.1-0.3,0.1-0.5,0.1c-0.3,0-0.7-0.2-0.9-0.5c-0.2-0.3-0.4-0.7-0.6-1.1c-1.6-2.8-3.5-6-3.5-8.5
		c0-5.1,3.8-9.4,8.9-9.9C24.5,7.1,25,7.5,25,8.1C25.1,8.6,24.7,9.1,24.2,9.2z"/>
</g>
</svg>
