<?xml version="1.0" encoding="utf-8"?>
<!-- Generator: Adobe Illustrator 19.0.0, SVG Export Plug-In . SVG Version: 6.00 Build 0)  -->
<svg version="1.1" id="Warstwa_1" xmlns="http://www.w3.org/2000/svg" xmlns:xlink="http://www.w3.org/1999/xlink" x="0px" y="0px"
	 viewBox="0 0 50 50" style="enable-background:new 0 0 50 50;" xml:space="preserve">
<style type="text/css">
	.st0{fill:none;stroke:#FFFFFF;stroke-width:2;stroke-linecap:round;stroke-linejoin:round;stroke-miterlimit:10;}
</style>
<g>
	<line class="st0" x1="32" y1="36.1" x2="18" y2="36.1"/>
	<path class="st0" d="M20,44.1v2c0,1.1,0.9,2,2,2h6c1.1,0,2-0.9,2-2v-2"/>
	<path class="st0" d="M18,38.1c0-6-8-12.6-8-21c0-8.4,6.7-15,15-15c8.3,0,15,6.6,15,15c0,8.4-8,15-8,21c0,6,0,6,0,6H18V38.1"/>
	<path class="st0" d="M24.1,8.2c-4.6,0.5-8,4.2-8,8.9c0,2.5,2.4,6.3,4,9"/>
</g>
</svg>
