<?xml version="1.0" encoding="utf-8"?>
<!-- Generator: Adobe Illustrator 19.0.0, SVG Export Plug-In . SVG Version: 6.00 Build 0)  -->
<svg version="1.1" id="Warstwa_1" xmlns="http://www.w3.org/2000/svg" xmlns:xlink="http://www.w3.org/1999/xlink" x="0px" y="0px"
	 viewBox="0 0 50 50" style="enable-background:new 0 0 50 50;" xml:space="preserve">
<style type="text/css">
	.st0{fill:#FFFFFF;}
</style>
<g>
	<path class="st0" d="M1,34.1c0,1.7,1.4,3,3.3,3H21h2h4h2h17.3c1.4,0,2.7-1.4,2.7-3v-3H1V34.1z"/>
	<path class="st0" d="M46,1.1H4c-1.7,0-3,1.4-3,3v25h48v-25C49,2.5,47.7,1.1,46,1.1z"/>
	<path class="st0" d="M29.1,39.5C29.1,39.5,29.1,39.5,29.1,39.5L29,39.1h-2h-4h-2v0.4H21C17.3,40.3,15,42,15,44.1
		c0,1.5,1.2,2.8,3.2,3.8c1.8,0.8,4.2,1.3,6.8,1.3c5.6,0,9.9-2.1,10-4.9v-0.1c0,0,0,0,0,0c0,0,0,0,0,0v-0.1
		C35,42,32.8,40.3,29.1,39.5z"/>
</g>
</svg>
