<?xml version="1.0" encoding="utf-8"?>
<!-- Generator: Adobe Illustrator 19.0.0, SVG Export Plug-In . SVG Version: 6.00 Build 0)  -->
<svg version="1.1" id="Warstwa_1" xmlns="http://www.w3.org/2000/svg" xmlns:xlink="http://www.w3.org/1999/xlink" x="0px" y="0px"
	 viewBox="0 0 50 50" style="enable-background:new 0 0 50 50;" xml:space="preserve">
<style type="text/css">
	.st0{fill:none;stroke:#FFFFFF;stroke-width:2;stroke-linecap:round;stroke-linejoin:round;stroke-miterlimit:10;}
</style>
<g>
	<path class="st0" d="M2,34.1c0,1.1,0.9,2,2.3,2h42c0.8,0,1.7-0.9,1.7-2v-30c0-1.1-0.9-2-2-2H4c-1.1,0-2,0.9-2,2V34.1z"/>
	<line class="st0" x1="2.3" y1="30.1" x2="48" y2="30.1"/>
	<polyline class="st0" points="28,37.1 28,44.1 22,44.1 22,37.1 	"/>
	<path class="st0" d="M28.9,40.5c3,0.6,5.1,2,5.1,3.6v0c0,2.2-4,4-9,4c-5,0-9-1.8-9-4c0-1.6,2.1-3,5.1-3.6"/>
</g>
</svg>
